<svg id="SvgjsSvg1006" width="692.5" height="218.8125" xmlns="http://www.w3.org/2000/svg" version="1.1" xmlns:xlink="http://www.w3.org/1999/xlink" xmlns:svgjs="http://svgjs.com/svgjs"><defs id="SvgjsDefs1007"><pattern patternUnits="userSpaceOnUse" id="pattern_mark_0" width="300" height="300"><text x="150" y="100" fill="rgba(229,229,229,0.8)" font-size="18" transform="rotate(-45, 150, 150)" style="dominant-baseline: middle; text-anchor: middle;"></text></pattern><pattern patternUnits="userSpaceOnUse" id="pattern_mark_1" width="300" height="300"><text x="150" y="200" fill="rgba(229,229,229,0.8)" font-size="18" transform="rotate(-45, 150, 150)" style="dominant-baseline: middle; text-anchor: middle;"></text></pattern></defs><rect id="svgbackgroundid" width="692.5" height="218.8125" fill="#ffffff"></rect><rect id="SvgjsRect1009" width="692.5" height="218.8125" fill="url(#pattern_mark_0)"></rect><rect id="SvgjsRect1010" width="692.5" height="218.8125" fill="url(#pattern_mark_1)"></rect><g id="SvgjsG1011" transform="translate(127.3125,115.625)"><path id="SvgjsPath1012" d="M 0 0L 100 0L 100 70L 0 70Z" stroke="rgba(33,41,48,1)" stroke-width="2" fill-opacity="1" fill="#ffffcc"></path><g id="SvgjsG1013"><text id="SvgjsText1014" font-family="Verdana" text-anchor="middle" font-size="15px" width="80px" fill="#323232" font-weight="700" align="middle" lineHeight="125%" anchor="middle" family="Verdana" size="15px" weight="700" font-style="" opacity="1" y="13.125" transform="rotate(0)"><tspan id="SvgjsTspan1015" dy="18.75" x="50"><tspan id="SvgjsTspan1016" style="">学生表</tspan></tspan><tspan id="SvgjsTspan1017" dy="18.75" x="50"><tspan id="SvgjsTspan1018" style="">student</tspan></tspan></text></g></g><g id="SvgjsG1019" transform="translate(279.5,115.625)"><path id="SvgjsPath1020" d="M 0 35L 70.5 0L 141 35L 70.5 70L 0 35Z" stroke="rgba(33,41,48,1)" stroke-width="2" fill-opacity="1" fill="#ffffcc"></path><g id="SvgjsG1021"><text id="SvgjsText1022" font-family="Verdana" text-anchor="middle" font-size="15px" width="121px" fill="#323232" font-weight="700" align="middle" lineHeight="125%" anchor="middle" family="Verdana" size="15px" weight="700" font-style="" opacity="1" y="13.125" transform="rotate(0)"><tspan id="SvgjsTspan1023" dy="18.75" x="70.5"><tspan id="SvgjsTspan1024" style="">成绩表</tspan></tspan><tspan id="SvgjsTspan1025" dy="18.75" x="70.5"><tspan id="SvgjsTspan1026" style="">score</tspan></tspan></text></g></g><g id="SvgjsG1027" transform="translate(186.5,31.125)"><path id="SvgjsPath1028" d="M 0 18.781250000000004C 0 -6.260416666666668 45.5 -6.260416666666668 45.5 18.781250000000004C 45.5 43.82291666666667 0 43.82291666666667 0 18.781250000000004Z" stroke="rgba(33,41,48,1)" stroke-width="2" fill-opacity="1" fill="#ffffff"></path><g id="SvgjsG1029"><text id="SvgjsText1030" font-family="思源黑体" text-anchor="middle" font-size="15px" width="26px" fill="#323232" font-weight="700" align="middle" lineHeight="125%" anchor="middle" family="思源黑体" size="15px" weight="700" font-style="" opacity="1" y="6.4062500000000036" transform="rotate(0)"><tspan id="SvgjsTspan1031" dy="18.75" x="23"><tspan id="SvgjsTspan1032" style="">id</tspan></tspan></text></g></g><g id="SvgjsG1033"><path id="SvgjsPath1034" d="M228.3125 150.625L253.40625 150.625L253.40625 150.625L278.5 150.625" stroke="#323232" stroke-width="2" fill="none"></path></g><g id="SvgjsG1035"><path id="SvgjsPath1036" d="M421.5 150.625L444.5 150.625L444.5 150.625L467.5 150.625" stroke="#323232" stroke-width="2" fill="none"></path></g><g id="SvgjsG1037"><path id="SvgjsPath1038" d="M210.1986411652478 69.00385413636818L349.05135883475214 115.30864586363185" stroke="#323232" stroke-width="2" fill="none"></path></g><g id="SvgjsG1039" transform="translate(468.5,115.625)"><path id="SvgjsPath1040" d="M 0 0L 93 0L 93 70L 0 70Z" stroke="rgba(33,41,48,1)" stroke-width="2" fill-opacity="1" fill="#ffffcc"></path><g id="SvgjsG1041"><text id="SvgjsText1042" font-family="Verdana" text-anchor="middle" font-size="15px" width="73px" fill="#323232" font-weight="700" align="middle" lineHeight="125%" anchor="middle" family="Verdana" size="15px" weight="700" font-style="" opacity="1" y="13.125" transform="rotate(0)"><tspan id="SvgjsTspan1043" dy="18.75" x="46.5"><tspan id="SvgjsTspan1044" style="">学科表</tspan></tspan><tspan id="SvgjsTspan1045" dy="18.75" x="46.5"><tspan id="SvgjsTspan1046" style="">subject</tspan></tspan></text></g></g><g id="SvgjsG1047" transform="translate(30.625,101.5)"><path id="SvgjsPath1048" d="M 0 15C 0 -5 55.875 -5 55.875 15C 55.875 35 0 35 0 15Z" stroke="rgba(33,41,48,1)" stroke-width="2" fill-opacity="1" fill="#ffffff"></path><g id="SvgjsG1049"><text id="SvgjsText1050" font-family="思源黑体" text-anchor="middle" font-size="15px" width="36px" fill="#323232" font-weight="700" align="middle" lineHeight="125%" anchor="middle" family="思源黑体" size="15px" weight="700" font-style="" opacity="1" y="2.625" transform="rotate(0)"><tspan id="SvgjsTspan1051" dy="18.75" x="28"><tspan id="SvgjsTspan1052" style="">id</tspan></tspan></text></g></g><g id="SvgjsG1053" transform="translate(25,155.625)"><path id="SvgjsPath1054" d="M 0 15C 0 -5 67.12499999999999 -5 67.12499999999999 15C 67.12499999999999 35 0 35 0 15Z" stroke="rgba(33,41,48,1)" stroke-width="2" fill-opacity="1" fill="#ffffff"></path><g id="SvgjsG1055"><text id="SvgjsText1056" font-family="思源黑体" text-anchor="middle" font-size="15px" width="48px" fill="#323232" font-weight="700" align="middle" lineHeight="125%" anchor="middle" family="思源黑体" size="15px" weight="700" font-style="" opacity="1" y="2.625" transform="rotate(0)"><tspan id="SvgjsTspan1057" dy="18.75" x="34"><tspan id="SvgjsTspan1058" style="">name</tspan></tspan></text></g></g><g id="SvgjsG1059"><path id="SvgjsPath1060" d="M126.54533904078852 149.9835453541662L87.26716095921148 117.14145464583379" stroke="#323232" stroke-width="2" fill="none"></path></g><g id="SvgjsG1061"><path id="SvgjsPath1062" d="M126.44311882337865 151.11914205420754L92.99438117662135 170.13085794579246" stroke="#323232" stroke-width="2" fill="none"></path></g><g id="SvgjsG1063" transform="translate(583.5,97.875)"><path id="SvgjsPath1064" d="M 0 18.625C 0 -6.208333333333333 84 -6.208333333333333 84 18.625C 84 43.458333333333336 0 43.458333333333336 0 18.625Z" stroke="rgba(33,41,48,1)" stroke-width="2" fill-opacity="1" fill="#ffffff"></path><g id="SvgjsG1065"><text id="SvgjsText1066" font-family="思源黑体" text-anchor="middle" font-size="15px" width="64px" fill="#323232" font-weight="700" align="middle" lineHeight="125%" anchor="middle" family="思源黑体" size="15px" weight="700" font-style="" opacity="1" y="6.25" transform="rotate(0)"><tspan id="SvgjsTspan1067" dy="18.75" x="42"><tspan id="SvgjsTspan1068" style="">id</tspan></tspan></text></g></g><g id="SvgjsG1069" transform="translate(588.5,155.625)"><path id="SvgjsPath1070" d="M 0 19.09375C 0 -6.364583333333333 74 -6.364583333333333 74 19.09375C 74 44.552083333333336 0 44.552083333333336 0 19.09375Z" stroke="rgba(33,41,48,1)" stroke-width="2" fill-opacity="1" fill="#ffffff"></path><g id="SvgjsG1071"><text id="SvgjsText1072" font-family="思源黑体" text-anchor="middle" font-size="15px" width="54px" fill="#323232" font-weight="700" align="middle" lineHeight="125%" anchor="middle" family="思源黑体" size="15px" weight="700" font-style="" opacity="1" y="6.71875" transform="rotate(0)"><tspan id="SvgjsTspan1073" dy="18.75" x="37"><tspan id="SvgjsTspan1074" style="">name</tspan></tspan></text></g></g><g id="SvgjsG1075" transform="translate(219.5,122.125)"><path id="SvgjsPath1076" d="M 0 0L 73 0L 73 40L 0 40Z" stroke="none" fill="none"></path><g id="SvgjsG1077"><text id="SvgjsText1078" font-family="&quot;Microsoft YaHei&quot;, 微软雅黑, Arial" text-anchor="middle" font-size="13px" width="73px" fill="#323232" font-weight="400" align="middle" lineHeight="125%" anchor="middle" family="&quot;Microsoft YaHei&quot;, 微软雅黑, Arial" size="13px" weight="400" font-style="" opacity="1" y="9.375" transform="rotate(0)"><tspan id="SvgjsTspan1079" dy="16.25" x="36.5"><tspan id="SvgjsTspan1080" style="">1:m</tspan></tspan></text></g></g><g id="SvgjsG1081" transform="translate(416.5,115.625)"><path id="SvgjsPath1082" d="M 0 0L 55 0L 55 40L 0 40Z" stroke="none" fill="none"></path><g id="SvgjsG1083"><text id="SvgjsText1084" font-family="&quot;Microsoft YaHei&quot;, 微软雅黑, Arial" text-anchor="middle" font-size="13px" width="55px" fill="#323232" font-weight="400" align="middle" lineHeight="125%" anchor="middle" family="&quot;Microsoft YaHei&quot;, 微软雅黑, Arial" size="13px" weight="400" font-style="" opacity="1" y="9.375" transform="rotate(0)"><tspan id="SvgjsTspan1085" dy="16.25" x="27.5"><tspan id="SvgjsTspan1086" style="">n:1</tspan></tspan></text></g></g><g id="SvgjsG1087" transform="translate(360.5,25)"><path id="SvgjsPath1088" d="M 0 22.875C 0 -7.625 116 -7.625 116 22.875C 116 53.375 0 53.375 0 22.875Z" stroke="rgba(33,41,48,1)" stroke-width="2" fill-opacity="1" fill="#ffffff"></path><g id="SvgjsG1089"><text id="SvgjsText1090" font-family="思源黑体" text-anchor="middle" font-size="15px" width="96px" fill="#323232" font-weight="700" align="middle" lineHeight="125%" anchor="middle" family="思源黑体" size="15px" weight="700" font-style="" opacity="1" y="10.5" transform="rotate(0)"><tspan id="SvgjsTspan1091" dy="18.75" x="58"><tspan id="SvgjsTspan1092" style="">subject_id</tspan></tspan></text></g></g><g id="SvgjsG1093" transform="translate(241,25)"><path id="SvgjsPath1094" d="M 0 22.875C 0 -7.625 112.5 -7.625 112.5 22.875C 112.5 53.375 0 53.375 0 22.875Z" stroke="rgba(33,41,48,1)" stroke-width="2" fill-opacity="1" fill="#ffffff"></path><g id="SvgjsG1095"><text id="SvgjsText1096" font-family="思源黑体" text-anchor="middle" font-size="15px" width="93px" fill="#323232" font-weight="700" align="middle" lineHeight="125%" anchor="middle" family="思源黑体" size="15px" weight="700" font-style="" opacity="1" y="10.5" transform="rotate(0)"><tspan id="SvgjsTspan1097" dy="18.75" x="56.5"><tspan id="SvgjsTspan1098" style="">student_id</tspan></tspan></text></g></g><g id="SvgjsG1099"><path id="SvgjsPath1100" d="M349.23832794712735 114.97703728203487L298.01167205287265 71.39796271796513" stroke="#323232" stroke-width="2" fill="none"></path></g><g id="SvgjsG1101"><path id="SvgjsPath1102" d="M350.8364852570769 115.07701057063758L417.6635147429231 71.29798942936245" stroke="#323232" stroke-width="2" fill="none"></path></g><g id="SvgjsG1103" transform="translate(483.5,27.0625)"><path id="SvgjsPath1104" d="M 0 20.812500000000004C 0 -6.937500000000001 73 -6.937500000000001 73 20.812500000000004C 73 48.56250000000001 0 48.56250000000001 0 20.812500000000004Z" stroke="rgba(33,41,48,1)" stroke-width="2" fill-opacity="1" fill="#ffffff"></path><g id="SvgjsG1105"><text id="SvgjsText1106" font-family="思源黑体" text-anchor="middle" font-size="15px" width="53px" fill="#323232" font-weight="700" align="middle" lineHeight="125%" anchor="middle" family="思源黑体" size="15px" weight="700" font-style="" opacity="1" y="8.437500000000004" transform="rotate(0)"><tspan id="SvgjsTspan1107" dy="18.75" x="36.5"><tspan id="SvgjsTspan1108" style="">result</tspan></tspan></text></g></g><g id="SvgjsG1109"><path id="SvgjsPath1110" d="M519.0360669273199 68.95364475646426L350.9639330726801 115.35885524353574" stroke="#323232" stroke-width="1.5" fill="none"></path></g><g id="SvgjsG1111"><path id="SvgjsPath1112" d="M562.0418463433816 149.7845224332774L582.9581536566184 117.3404775667226" stroke="#323232" stroke-width="1.5" fill="none"></path></g><g id="SvgjsG1113"><path id="SvgjsPath1114" d="M562.2461215011671 151.29080981180533L587.7538784988329 174.05294018819467" stroke="#323232" stroke-width="1.5" fill="none"></path></g><g id="SvgjsG1115"></g></svg>