<svg id="SvgjsSvg1006" width="1190.625" height="521.8125" xmlns="http://www.w3.org/2000/svg" version="1.1" xmlns:xlink="http://www.w3.org/1999/xlink" xmlns:svgjs="http://svgjs.com/svgjs"><defs id="SvgjsDefs1007"><pattern patternUnits="userSpaceOnUse" id="pattern_mark_0" width="300" height="300"><text x="150" y="100" fill="rgba(229,229,229,0.8)" font-size="18" transform="rotate(-45, 150, 150)" style="dominant-baseline: middle; text-anchor: middle;"></text></pattern><pattern patternUnits="userSpaceOnUse" id="pattern_mark_1" width="300" height="300"><text x="150" y="200" fill="rgba(229,229,229,0.8)" font-size="18" transform="rotate(-45, 150, 150)" style="dominant-baseline: middle; text-anchor: middle;"></text></pattern><marker id="SvgjsMarker1287" markerWidth="20" markerHeight="16" refX="7" refY="8" viewBox="0 0 20 16" orient="auto" markerUnits="userSpaceOnUse" stroke-dasharray="0,0"><path id="SvgjsPath1288" d="M20,0 L0,8 L20,16 L20,0" fill="#323232" stroke="#323232" stroke-width="1"></path></marker><marker id="SvgjsMarker1289" markerWidth="20" markerHeight="16" refX="13" refY="8" viewBox="0 0 20 16" orient="auto" markerUnits="userSpaceOnUse" stroke-dasharray="0,0"><path id="SvgjsPath1290" d="M0,0 L20,8 L0,16 L0,0" fill="#323232" stroke="#323232" stroke-width="1"></path></marker><marker id="SvgjsMarker1297" markerWidth="20" markerHeight="16" refX="7" refY="8" viewBox="0 0 20 16" orient="auto" markerUnits="userSpaceOnUse" stroke-dasharray="0,0"><path id="SvgjsPath1298" d="M20,0 L0,8 L20,16 L20,0" fill="#323232" stroke="#323232" stroke-width="1"></path></marker><marker id="SvgjsMarker1299" markerWidth="20" markerHeight="16" refX="13" refY="8" viewBox="0 0 20 16" orient="auto" markerUnits="userSpaceOnUse" stroke-dasharray="0,0"><path id="SvgjsPath1300" d="M0,0 L20,8 L0,16 L0,0" fill="#323232" stroke="#323232" stroke-width="1"></path></marker><marker id="SvgjsMarker1307" markerWidth="20" markerHeight="16" refX="7" refY="8" viewBox="0 0 20 16" orient="auto" markerUnits="userSpaceOnUse" stroke-dasharray="0,0"><path id="SvgjsPath1308" d="M20,0 L0,8 L20,16 L20,0" fill="#323232" stroke="#323232" stroke-width="1"></path></marker><marker id="SvgjsMarker1309" markerWidth="20" markerHeight="16" refX="13" refY="8" viewBox="0 0 20 16" orient="auto" markerUnits="userSpaceOnUse" stroke-dasharray="0,0"><path id="SvgjsPath1310" d="M0,0 L20,8 L0,16 L0,0" fill="#323232" stroke="#323232" stroke-width="1"></path></marker><marker id="SvgjsMarker1317" markerWidth="20" markerHeight="16" refX="7" refY="8" viewBox="0 0 20 16" orient="auto" markerUnits="userSpaceOnUse" stroke-dasharray="0,0"><path id="SvgjsPath1318" d="M20,0 L0,8 L20,16 L20,0" fill="#323232" stroke="#323232" stroke-width="1"></path></marker><marker id="SvgjsMarker1319" markerWidth="20" markerHeight="16" refX="13" refY="8" viewBox="0 0 20 16" orient="auto" markerUnits="userSpaceOnUse" stroke-dasharray="0,0"><path id="SvgjsPath1320" d="M0,0 L20,8 L0,16 L0,0" fill="#323232" stroke="#323232" stroke-width="1"></path></marker></defs><rect id="svgbackgroundid" width="1190.625" height="521.8125" fill="#ffffff"></rect><rect id="SvgjsRect1009" width="1190.625" height="521.8125" fill="url(#pattern_mark_0)"></rect><rect id="SvgjsRect1010" width="1190.625" height="521.8125" fill="url(#pattern_mark_1)"></rect><g id="SvgjsG1011" transform="translate(606,304)"><path id="SvgjsPath1012" d="M 0 4Q 0 0 4 0L 555.625 0Q 559.625 0 559.625 4L 559.625 188.8125Q 559.625 192.8125 555.625 192.8125L 4 192.8125Q 0 192.8125 0 188.8125Z" stroke="rgba(33,41,48,1)" stroke-width="1.5" fill-opacity="1" fill="#ffffff"></path><g id="SvgjsG1013"><text id="SvgjsText1014" font-family="&quot;Microsoft YaHei&quot;, 微软雅黑, Arial" text-anchor="start" font-size="13px" width="550px" fill="#ed9745" font-weight="400" align="middle" lineHeight="125%" anchor="start" family="&quot;Microsoft YaHei&quot;, 微软雅黑, Arial" size="13px" weight="400" font-style="" opacity="1" y="4.147321428571432" transform="rotate(0)"><tspan id="SvgjsTspan1015" dy="16.25" x="5"><tspan id="SvgjsTspan1016" style="font-weight: bold;">ZJU 学校</tspan></tspan></text></g></g><g id="SvgjsG1017" transform="translate(25,304)"><path id="SvgjsPath1018" d="M 0 4Q 0 0 4 0L 555.625 0Q 559.625 0 559.625 4L 559.625 188.8125Q 559.625 192.8125 555.625 192.8125L 4 192.8125Q 0 192.8125 0 188.8125Z" stroke="rgba(33,41,48,1)" stroke-width="1.5" fill-opacity="1" fill="#ffffff"></path><g id="SvgjsG1019"><text id="SvgjsText1020" font-family="&quot;Microsoft YaHei&quot;, 微软雅黑, Arial" text-anchor="start" font-size="13px" width="550px" fill="#ed9745" font-weight="400" align="middle" lineHeight="125%" anchor="start" family="&quot;Microsoft YaHei&quot;, 微软雅黑, Arial" size="13px" weight="400" font-style="" opacity="1" y="4.147321428571432" transform="rotate(0)"><tspan id="SvgjsTspan1021" dy="16.25" x="5"><tspan id="SvgjsTspan1022" style="font-weight: bold;">USTC 学校</tspan></tspan></text></g></g><g id="SvgjsG1023" transform="translate(101.875,345)"><path id="SvgjsPath1024" d="M 0 0L 100 0L 100 70L 0 70Z" stroke="rgba(33,41,48,1)" stroke-width="2" fill-opacity="1" fill="#ffffcc"></path><g id="SvgjsG1025"><text id="SvgjsText1026" font-family="Verdana" text-anchor="middle" font-size="13px" width="80px" fill="#323232" font-weight="700" align="middle" lineHeight="125%" anchor="middle" family="Verdana" size="13px" weight="700" font-style="" opacity="1" y="7.875" transform="rotate(0)"><tspan id="SvgjsTspan1027" dy="16.25" x="50"><tspan id="SvgjsTspan1028" style="">学生表</tspan></tspan><tspan id="SvgjsTspan1029" dy="16.25" x="50"><tspan id="SvgjsTspan1030" style="">ustc_stud</tspan></tspan><tspan id="SvgjsTspan1031" dy="16.25" x="50"><tspan id="SvgjsTspan1032" style="">ent</tspan></tspan></text></g></g><g id="SvgjsG1033" transform="translate(236.625,345)"><path id="SvgjsPath1034" d="M 0 35L 70.5 0L 141 35L 70.5 70L 0 35Z" stroke="rgba(33,41,48,1)" stroke-width="2" fill-opacity="1" fill="#ffffcc"></path><g id="SvgjsG1035"><text id="SvgjsText1036" font-family="Verdana" text-anchor="middle" font-size="15px" width="121px" fill="#323232" font-weight="700" align="middle" lineHeight="125%" anchor="middle" family="Verdana" size="15px" weight="700" font-style="" opacity="1" y="13.125" transform="rotate(0)"><tspan id="SvgjsTspan1037" dy="18.75" x="70.5"><tspan id="SvgjsTspan1038" style="">成绩表</tspan></tspan><tspan id="SvgjsTspan1039" dy="18.75" x="70.5"><tspan id="SvgjsTspan1040" style="">ustc_score</tspan></tspan></text></g></g><g id="SvgjsG1041" transform="translate(129.125,450.5)"><path id="SvgjsPath1042" d="M 0 18.781250000000004C 0 -6.260416666666668 45.5 -6.260416666666668 45.5 18.781250000000004C 45.5 43.82291666666667 0 43.82291666666667 0 18.781250000000004Z" stroke="rgba(33,41,48,1)" stroke-width="2" fill-opacity="1" fill="#ffffff"></path><g id="SvgjsG1043"><text id="SvgjsText1044" font-family="思源黑体" text-anchor="middle" font-size="15px" width="26px" fill="#323232" font-weight="700" align="middle" lineHeight="125%" anchor="middle" family="思源黑体" size="15px" weight="700" font-style="" opacity="1" y="6.4062500000000036" transform="rotate(0)"><tspan id="SvgjsTspan1045" dy="18.75" x="23"><tspan id="SvgjsTspan1046" style="">id</tspan></tspan></text></g></g><g id="SvgjsG1047"><path id="SvgjsPath1048" d="M202.875 380L219.25 380L219.25 380L235.625 380" stroke="#323232" stroke-width="2" fill="none"></path></g><g id="SvgjsG1049"><path id="SvgjsPath1050" d="M378.625 380L391.875 380L391.875 380L405.125 380" stroke="#323232" stroke-width="2" fill="none"></path></g><g id="SvgjsG1051" transform="translate(406.125,345)"><path id="SvgjsPath1052" d="M 0 0L 93 0L 93 70L 0 70Z" stroke="rgba(33,41,48,1)" stroke-width="2" fill-opacity="1" fill="#ffffcc"></path><g id="SvgjsG1053"><text id="SvgjsText1054" font-family="Verdana" text-anchor="middle" font-size="15px" width="73px" fill="#323232" font-weight="700" align="middle" lineHeight="125%" anchor="middle" family="Verdana" size="15px" weight="700" font-style="" opacity="1" y="13.125" transform="rotate(0)"><tspan id="SvgjsTspan1055" dy="18.75" x="46.5"><tspan id="SvgjsTspan1056" style="">学科表</tspan></tspan><tspan id="SvgjsTspan1057" dy="18.75" x="46.5"><tspan id="SvgjsTspan1058" style="">subject</tspan></tspan></text></g></g><g id="SvgjsG1059" transform="translate(34.75,336.25)"><path id="SvgjsPath1060" d="M 0 15C 0 -5 55.875 -5 55.875 15C 55.875 35 0 35 0 15Z" stroke="rgba(33,41,48,1)" stroke-width="2" fill-opacity="1" fill="#ffffff"></path><g id="SvgjsG1061"><text id="SvgjsText1062" font-family="思源黑体" text-anchor="middle" font-size="15px" width="36px" fill="#323232" font-weight="700" align="middle" lineHeight="125%" anchor="middle" family="思源黑体" size="15px" weight="700" font-style="" opacity="1" y="2.625" transform="rotate(0)"><tspan id="SvgjsTspan1063" dy="18.75" x="28"><tspan id="SvgjsTspan1064" style="">id</tspan></tspan></text></g></g><g id="SvgjsG1065" transform="translate(34.75,385)"><path id="SvgjsPath1066" d="M 0 15C 0 -5 61.5 -5 61.5 15C 61.5 35 0 35 0 15Z" stroke="rgba(33,41,48,1)" stroke-width="2" fill-opacity="1" fill="#ffffff"></path><g id="SvgjsG1067"><text id="SvgjsText1068" font-family="思源黑体" text-anchor="middle" font-size="15px" width="42px" fill="#323232" font-weight="700" align="middle" lineHeight="125%" anchor="middle" family="思源黑体" size="15px" weight="700" font-style="" opacity="1" y="2.625" transform="rotate(0)"><tspan id="SvgjsTspan1069" dy="18.75" x="31"><tspan id="SvgjsTspan1070" style="">name</tspan></tspan></text></g></g><g id="SvgjsG1071"><path id="SvgjsPath1072" d="M101.5106006514195 379.06875722029423L90.98939934858052 352.18124277970577" stroke="#323232" stroke-width="2" fill="none"></path></g><g id="SvgjsG1073"><path id="SvgjsPath1074" d="M101.60425442308171 380.9626509401539L96.52074557691829 399.0373490598461" stroke="#323232" stroke-width="2" fill="none"></path></g><g id="SvgjsG1075" transform="translate(515.125,336.25)"><path id="SvgjsPath1076" d="M 0 18.625C 0 -6.208333333333333 59 -6.208333333333333 59 18.625C 59 43.458333333333336 0 43.458333333333336 0 18.625Z" stroke="rgba(33,41,48,1)" stroke-width="2" fill-opacity="1" fill="#ffffff"></path><g id="SvgjsG1077"><text id="SvgjsText1078" font-family="思源黑体" text-anchor="middle" font-size="15px" width="39px" fill="#323232" font-weight="700" align="middle" lineHeight="125%" anchor="middle" family="思源黑体" size="15px" weight="700" font-style="" opacity="1" y="6.25" transform="rotate(0)"><tspan id="SvgjsTspan1079" dy="18.75" x="29.5"><tspan id="SvgjsTspan1080" style="">id</tspan></tspan></text></g></g><g id="SvgjsG1081" transform="translate(515.125,391.5)"><path id="SvgjsPath1082" d="M 0 19.09375C 0 -6.364583333333333 63.5 -6.364583333333333 63.5 19.09375C 63.5 44.552083333333336 0 44.552083333333336 0 19.09375Z" stroke="rgba(33,41,48,1)" stroke-width="2" fill-opacity="1" fill="#ffffff"></path><g id="SvgjsG1083"><text id="SvgjsText1084" font-family="思源黑体" text-anchor="middle" font-size="15px" width="44px" fill="#323232" font-weight="700" align="middle" lineHeight="125%" anchor="middle" family="思源黑体" size="15px" weight="700" font-style="" opacity="1" y="6.71875" transform="rotate(0)"><tspan id="SvgjsTspan1085" dy="18.75" x="32"><tspan id="SvgjsTspan1086" style="">name</tspan></tspan></text></g></g><g id="SvgjsG1087" transform="translate(183.625,351.5)"><path id="SvgjsPath1088" d="M 0 0L 73 0L 73 40L 0 40Z" stroke="none" fill="none"></path><g id="SvgjsG1089"><text id="SvgjsText1090" font-family="&quot;Microsoft YaHei&quot;, 微软雅黑, Arial" text-anchor="middle" font-size="13px" width="73px" fill="#323232" font-weight="400" align="middle" lineHeight="125%" anchor="middle" family="&quot;Microsoft YaHei&quot;, 微软雅黑, Arial" size="13px" weight="400" font-style="" opacity="1" y="9.375" transform="rotate(0)"><tspan id="SvgjsTspan1091" dy="16.25" x="36.5"><tspan id="SvgjsTspan1092" style="">1:m</tspan></tspan></text></g></g><g id="SvgjsG1093" transform="translate(364.125,351.5)"><path id="SvgjsPath1094" d="M 0 0L 55 0L 55 40L 0 40Z" stroke="none" fill="none"></path><g id="SvgjsG1095"><text id="SvgjsText1096" font-family="&quot;Microsoft YaHei&quot;, 微软雅黑, Arial" text-anchor="middle" font-size="13px" width="55px" fill="#323232" font-weight="400" align="middle" lineHeight="125%" anchor="middle" family="&quot;Microsoft YaHei&quot;, 微软雅黑, Arial" size="13px" weight="400" font-style="" opacity="1" y="9.375" transform="rotate(0)"><tspan id="SvgjsTspan1097" dy="16.25" x="27.5"><tspan id="SvgjsTspan1098" style="">n:1</tspan></tspan></text></g></g><g id="SvgjsG1099" transform="translate(303.125,444.375)"><path id="SvgjsPath1100" d="M 0 22.875C 0 -7.625 116 -7.625 116 22.875C 116 53.375 0 53.375 0 22.875Z" stroke="rgba(33,41,48,1)" stroke-width="2" fill-opacity="1" fill="#ffffff"></path><g id="SvgjsG1101"><text id="SvgjsText1102" font-family="思源黑体" text-anchor="middle" font-size="15px" width="96px" fill="#323232" font-weight="700" align="middle" lineHeight="125%" anchor="middle" family="思源黑体" size="15px" weight="700" font-style="" opacity="1" y="10.5" transform="rotate(0)"><tspan id="SvgjsTspan1103" dy="18.75" x="58"><tspan id="SvgjsTspan1104" style="">subject_id</tspan></tspan></text></g></g><g id="SvgjsG1105" transform="translate(183.625,444.375)"><path id="SvgjsPath1106" d="M 0 22.875C 0 -7.625 112.5 -7.625 112.5 22.875C 112.5 53.375 0 53.375 0 22.875Z" stroke="rgba(33,41,48,1)" stroke-width="2" fill-opacity="1" fill="#ffffff"></path><g id="SvgjsG1107"><text id="SvgjsText1108" font-family="思源黑体" text-anchor="middle" font-size="15px" width="93px" fill="#323232" font-weight="700" align="middle" lineHeight="125%" anchor="middle" family="思源黑体" size="15px" weight="700" font-style="" opacity="1" y="10.5" transform="rotate(0)"><tspan id="SvgjsTspan1109" dy="18.75" x="56.5"><tspan id="SvgjsTspan1110" style="">student_id</tspan></tspan></text></g></g><g id="SvgjsG1111" transform="translate(426.125,446.4375)"><path id="SvgjsPath1112" d="M 0 20.812500000000004C 0 -6.937500000000001 73 -6.937500000000001 73 20.812500000000004C 73 48.56250000000001 0 48.56250000000001 0 20.812500000000004Z" stroke="rgba(33,41,48,1)" stroke-width="2" fill-opacity="1" fill="#ffffff"></path><g id="SvgjsG1113"><text id="SvgjsText1114" font-family="思源黑体" text-anchor="middle" font-size="15px" width="53px" fill="#323232" font-weight="700" align="middle" lineHeight="125%" anchor="middle" family="思源黑体" size="15px" weight="700" font-style="" opacity="1" y="8.437500000000004" transform="rotate(0)"><tspan id="SvgjsTspan1115" dy="18.75" x="36.5"><tspan id="SvgjsTspan1116" style="">result</tspan></tspan></text></g></g><g id="SvgjsG1117"><path id="SvgjsPath1118" d="M499.6621470000935 379.1565113514157L514.5878529999065 355.7184886485843" stroke="#323232" stroke-width="1.5" fill="none"></path></g><g id="SvgjsG1119"><path id="SvgjsPath1120" d="M499.5884319233511 380.8861325253139L514.6615680766489 409.7076174746861" stroke="#323232" stroke-width="1.5" fill="none"></path></g><g id="SvgjsG1121"><path id="SvgjsPath1122" d="M152.84983901748745 450.2770899509127L306.15016098251255 415.2229100490873" stroke="#323232" stroke-width="1.5" fill="none"></path></g><g id="SvgjsG1123"><path id="SvgjsPath1124" d="M240.7913917349999 443.97471736482345L306.2086082650001 415.40028263517655" stroke="#323232" stroke-width="1.5" fill="none"></path></g><g id="SvgjsG1125"><path id="SvgjsPath1126" d="M360.24656102035755 443.897145462463L308.00343897964245 415.477854537537" stroke="#323232" stroke-width="1.5" fill="none"></path></g><g id="SvgjsG1127"><path id="SvgjsPath1128" d="M461.6448305689272 446.2393387364029L308.1051694310728 415.1981612635971" stroke="#323232" stroke-width="1.5" fill="none"></path></g><g id="SvgjsG1129" transform="translate(682.5,346.75)"><path id="SvgjsPath1130" d="M 0 0L 100 0L 100 70L 0 70Z" stroke="rgba(33,41,48,1)" stroke-width="2" fill-opacity="1" fill="#ffffcc"></path><g id="SvgjsG1131"><text id="SvgjsText1132" font-family="Verdana" text-anchor="middle" font-size="13px" width="80px" fill="#323232" font-weight="700" align="middle" lineHeight="125%" anchor="middle" family="Verdana" size="13px" weight="700" font-style="" opacity="1" y="7.875" transform="rotate(0)"><tspan id="SvgjsTspan1133" dy="16.25" x="50"><tspan id="SvgjsTspan1134" style="">学生表</tspan></tspan><tspan id="SvgjsTspan1135" dy="16.25" x="50"><tspan id="SvgjsTspan1136" style="">zju_stude</tspan></tspan><tspan id="SvgjsTspan1137" dy="16.25" x="50"><tspan id="SvgjsTspan1138" style="">nt</tspan></tspan></text></g></g><g id="SvgjsG1139" transform="translate(817.25,346.75)"><path id="SvgjsPath1140" d="M 0 35L 70.5 0L 141 35L 70.5 70L 0 35Z" stroke="rgba(33,41,48,1)" stroke-width="2" fill-opacity="1" fill="#ffffcc"></path><g id="SvgjsG1141"><text id="SvgjsText1142" font-family="Verdana" text-anchor="middle" font-size="15px" width="121px" fill="#323232" font-weight="700" align="middle" lineHeight="125%" anchor="middle" family="Verdana" size="15px" weight="700" font-style="" opacity="1" y="13.125" transform="rotate(0)"><tspan id="SvgjsTspan1143" dy="18.75" x="70.5"><tspan id="SvgjsTspan1144" style="">成绩表</tspan></tspan><tspan id="SvgjsTspan1145" dy="18.75" x="70.5"><tspan id="SvgjsTspan1146" style="">zju_score</tspan></tspan></text></g></g><g id="SvgjsG1147" transform="translate(709.75,452.25)"><path id="SvgjsPath1148" d="M 0 18.781250000000004C 0 -6.260416666666668 45.5 -6.260416666666668 45.5 18.781250000000004C 45.5 43.82291666666667 0 43.82291666666667 0 18.781250000000004Z" stroke="rgba(33,41,48,1)" stroke-width="2" fill-opacity="1" fill="#ffffff"></path><g id="SvgjsG1149"><text id="SvgjsText1150" font-family="思源黑体" text-anchor="middle" font-size="15px" width="26px" fill="#323232" font-weight="700" align="middle" lineHeight="125%" anchor="middle" family="思源黑体" size="15px" weight="700" font-style="" opacity="1" y="6.4062500000000036" transform="rotate(0)"><tspan id="SvgjsTspan1151" dy="18.75" x="23"><tspan id="SvgjsTspan1152" style="">id</tspan></tspan></text></g></g><g id="SvgjsG1153"><path id="SvgjsPath1154" d="M783.5 381.75L799.875 381.75L799.875 381.75L816.25 381.75" stroke="#323232" stroke-width="2" fill="none"></path></g><g id="SvgjsG1155"><path id="SvgjsPath1156" d="M959.25 381.75L972.5 381.75L972.5 381.75L985.75 381.75" stroke="#323232" stroke-width="2" fill="none"></path></g><g id="SvgjsG1157" transform="translate(986.75,346.75)"><path id="SvgjsPath1158" d="M 0 0L 93 0L 93 70L 0 70Z" stroke="rgba(33,41,48,1)" stroke-width="2" fill-opacity="1" fill="#ffffcc"></path><g id="SvgjsG1159"><text id="SvgjsText1160" font-family="Verdana" text-anchor="middle" font-size="15px" width="73px" fill="#323232" font-weight="700" align="middle" lineHeight="125%" anchor="middle" family="Verdana" size="15px" weight="700" font-style="" opacity="1" y="13.125" transform="rotate(0)"><tspan id="SvgjsTspan1161" dy="18.75" x="46.5"><tspan id="SvgjsTspan1162" style="">学科表</tspan></tspan><tspan id="SvgjsTspan1163" dy="18.75" x="46.5"><tspan id="SvgjsTspan1164" style="">subject</tspan></tspan></text></g></g><g id="SvgjsG1165" transform="translate(615.375,338)"><path id="SvgjsPath1166" d="M 0 15C 0 -5 55.875 -5 55.875 15C 55.875 35 0 35 0 15Z" stroke="rgba(33,41,48,1)" stroke-width="2" fill-opacity="1" fill="#ffffff"></path><g id="SvgjsG1167"><text id="SvgjsText1168" font-family="思源黑体" text-anchor="middle" font-size="15px" width="36px" fill="#323232" font-weight="700" align="middle" lineHeight="125%" anchor="middle" family="思源黑体" size="15px" weight="700" font-style="" opacity="1" y="2.625" transform="rotate(0)"><tspan id="SvgjsTspan1169" dy="18.75" x="28"><tspan id="SvgjsTspan1170" style="">id</tspan></tspan></text></g></g><g id="SvgjsG1171" transform="translate(615.375,386.75)"><path id="SvgjsPath1172" d="M 0 15C 0 -5 61.5 -5 61.5 15C 61.5 35 0 35 0 15Z" stroke="rgba(33,41,48,1)" stroke-width="2" fill-opacity="1" fill="#ffffff"></path><g id="SvgjsG1173"><text id="SvgjsText1174" font-family="思源黑体" text-anchor="middle" font-size="15px" width="42px" fill="#323232" font-weight="700" align="middle" lineHeight="125%" anchor="middle" family="思源黑体" size="15px" weight="700" font-style="" opacity="1" y="2.625" transform="rotate(0)"><tspan id="SvgjsTspan1175" dy="18.75" x="31"><tspan id="SvgjsTspan1176" style="">name</tspan></tspan></text></g></g><g id="SvgjsG1177"><path id="SvgjsPath1178" d="M682.1356006514195 380.81875722029423L671.6143993485805 353.93124277970577" stroke="#323232" stroke-width="2" fill="none"></path></g><g id="SvgjsG1179"><path id="SvgjsPath1180" d="M682.2292544230817 382.7126509401539L677.1457455769183 400.7873490598461" stroke="#323232" stroke-width="2" fill="none"></path></g><g id="SvgjsG1181" transform="translate(1095.75,338)"><path id="SvgjsPath1182" d="M 0 18.625C 0 -6.208333333333333 59 -6.208333333333333 59 18.625C 59 43.458333333333336 0 43.458333333333336 0 18.625Z" stroke="rgba(33,41,48,1)" stroke-width="2" fill-opacity="1" fill="#ffffff"></path><g id="SvgjsG1183"><text id="SvgjsText1184" font-family="思源黑体" text-anchor="middle" font-size="15px" width="39px" fill="#323232" font-weight="700" align="middle" lineHeight="125%" anchor="middle" family="思源黑体" size="15px" weight="700" font-style="" opacity="1" y="6.25" transform="rotate(0)"><tspan id="SvgjsTspan1185" dy="18.75" x="29.5"><tspan id="SvgjsTspan1186" style="">id</tspan></tspan></text></g></g><g id="SvgjsG1187" transform="translate(1095.75,393.25)"><path id="SvgjsPath1188" d="M 0 19.09375C 0 -6.364583333333333 63.5 -6.364583333333333 63.5 19.09375C 63.5 44.552083333333336 0 44.552083333333336 0 19.09375Z" stroke="rgba(33,41,48,1)" stroke-width="2" fill-opacity="1" fill="#ffffff"></path><g id="SvgjsG1189"><text id="SvgjsText1190" font-family="思源黑体" text-anchor="middle" font-size="15px" width="44px" fill="#323232" font-weight="700" align="middle" lineHeight="125%" anchor="middle" family="思源黑体" size="15px" weight="700" font-style="" opacity="1" y="6.71875" transform="rotate(0)"><tspan id="SvgjsTspan1191" dy="18.75" x="32"><tspan id="SvgjsTspan1192" style="">name</tspan></tspan></text></g></g><g id="SvgjsG1193" transform="translate(764.25,353.25)"><path id="SvgjsPath1194" d="M 0 0L 73 0L 73 40L 0 40Z" stroke="none" fill="none"></path><g id="SvgjsG1195"><text id="SvgjsText1196" font-family="&quot;Microsoft YaHei&quot;, 微软雅黑, Arial" text-anchor="middle" font-size="13px" width="73px" fill="#323232" font-weight="400" align="middle" lineHeight="125%" anchor="middle" family="&quot;Microsoft YaHei&quot;, 微软雅黑, Arial" size="13px" weight="400" font-style="" opacity="1" y="9.375" transform="rotate(0)"><tspan id="SvgjsTspan1197" dy="16.25" x="36.5"><tspan id="SvgjsTspan1198" style="">1:m</tspan></tspan></text></g></g><g id="SvgjsG1199" transform="translate(944.75,353.25)"><path id="SvgjsPath1200" d="M 0 0L 55 0L 55 40L 0 40Z" stroke="none" fill="none"></path><g id="SvgjsG1201"><text id="SvgjsText1202" font-family="&quot;Microsoft YaHei&quot;, 微软雅黑, Arial" text-anchor="middle" font-size="13px" width="55px" fill="#323232" font-weight="400" align="middle" lineHeight="125%" anchor="middle" family="&quot;Microsoft YaHei&quot;, 微软雅黑, Arial" size="13px" weight="400" font-style="" opacity="1" y="9.375" transform="rotate(0)"><tspan id="SvgjsTspan1203" dy="16.25" x="27.5"><tspan id="SvgjsTspan1204" style="">n:1</tspan></tspan></text></g></g><g id="SvgjsG1205" transform="translate(883.75,446.125)"><path id="SvgjsPath1206" d="M 0 22.875C 0 -7.625 116 -7.625 116 22.875C 116 53.375 0 53.375 0 22.875Z" stroke="rgba(33,41,48,1)" stroke-width="2" fill-opacity="1" fill="#ffffff"></path><g id="SvgjsG1207"><text id="SvgjsText1208" font-family="思源黑体" text-anchor="middle" font-size="15px" width="96px" fill="#323232" font-weight="700" align="middle" lineHeight="125%" anchor="middle" family="思源黑体" size="15px" weight="700" font-style="" opacity="1" y="10.5" transform="rotate(0)"><tspan id="SvgjsTspan1209" dy="18.75" x="58"><tspan id="SvgjsTspan1210" style="">subject_id</tspan></tspan></text></g></g><g id="SvgjsG1211" transform="translate(764.25,446.125)"><path id="SvgjsPath1212" d="M 0 22.875C 0 -7.625 112.5 -7.625 112.5 22.875C 112.5 53.375 0 53.375 0 22.875Z" stroke="rgba(33,41,48,1)" stroke-width="2" fill-opacity="1" fill="#ffffff"></path><g id="SvgjsG1213"><text id="SvgjsText1214" font-family="思源黑体" text-anchor="middle" font-size="15px" width="93px" fill="#323232" font-weight="700" align="middle" lineHeight="125%" anchor="middle" family="思源黑体" size="15px" weight="700" font-style="" opacity="1" y="10.5" transform="rotate(0)"><tspan id="SvgjsTspan1215" dy="18.75" x="56.5"><tspan id="SvgjsTspan1216" style="">student_id</tspan></tspan></text></g></g><g id="SvgjsG1217" transform="translate(1006.75,448.1875)"><path id="SvgjsPath1218" d="M 0 20.812500000000004C 0 -6.937500000000001 73 -6.937500000000001 73 20.812500000000004C 73 48.56250000000001 0 48.56250000000001 0 20.812500000000004Z" stroke="rgba(33,41,48,1)" stroke-width="2" fill-opacity="1" fill="#ffffff"></path><g id="SvgjsG1219"><text id="SvgjsText1220" font-family="思源黑体" text-anchor="middle" font-size="15px" width="53px" fill="#323232" font-weight="700" align="middle" lineHeight="125%" anchor="middle" family="思源黑体" size="15px" weight="700" font-style="" opacity="1" y="8.437500000000004" transform="rotate(0)"><tspan id="SvgjsTspan1221" dy="18.75" x="36.5"><tspan id="SvgjsTspan1222" style="">result</tspan></tspan></text></g></g><g id="SvgjsG1223"><path id="SvgjsPath1224" d="M1080.2871470000935 380.9065113514157L1095.2128529999065 357.4684886485843" stroke="#323232" stroke-width="1.5" fill="none"></path></g><g id="SvgjsG1225"><path id="SvgjsPath1226" d="M1080.213431923351 382.6361325253139L1095.286568076649 411.4576174746861" stroke="#323232" stroke-width="1.5" fill="none"></path></g><g id="SvgjsG1227"><path id="SvgjsPath1228" d="M733.4748390174874 452.0270899509127L886.7751609825126 416.9729100490873" stroke="#323232" stroke-width="1.5" fill="none"></path></g><g id="SvgjsG1229"><path id="SvgjsPath1230" d="M821.4163917349999 445.72471736482345L886.8336082650001 417.15028263517655" stroke="#323232" stroke-width="1.5" fill="none"></path></g><g id="SvgjsG1231"><path id="SvgjsPath1232" d="M940.8715610203575 445.647145462463L888.6284389796425 417.227854537537" stroke="#323232" stroke-width="1.5" fill="none"></path></g><g id="SvgjsG1233"><path id="SvgjsPath1234" d="M1042.269830568927 447.9893387364029L888.7301694310728 416.9481612635971" stroke="#323232" stroke-width="1.5" fill="none"></path></g><g id="SvgjsG1235" transform="translate(317.125,25)"><path id="SvgjsPath1236" d="M 0 4Q 0 0 4 0L 555.625 0Q 559.625 0 559.625 4L 559.625 188.8125Q 559.625 192.8125 555.625 192.8125L 4 192.8125Q 0 192.8125 0 188.8125Z" stroke="rgba(33,41,48,1)" stroke-width="1.5" fill-opacity="1" fill="#ffffff"></path><g id="SvgjsG1237"><text id="SvgjsText1238" font-family="&quot;Microsoft YaHei&quot;, 微软雅黑, Arial" text-anchor="start" font-size="13px" width="550px" fill="#ed9745" font-weight="400" align="middle" lineHeight="125%" anchor="start" family="&quot;Microsoft YaHei&quot;, 微软雅黑, Arial" size="13px" weight="400" font-style="" opacity="1" y="4.147321428571432" transform="rotate(0)"><tspan id="SvgjsTspan1239" dy="16.25" x="5"><tspan id="SvgjsTspan1240" style="font-weight: bold;">教育局</tspan></tspan></text></g></g><g id="SvgjsG1241" transform="translate(568.625,36)"><path id="SvgjsPath1242" d="M 0 0L 93 0L 93 70L 0 70Z" stroke="rgba(33,41,48,1)" stroke-width="2" fill-opacity="1" fill="#ffffcc"></path><g id="SvgjsG1243"><text id="SvgjsText1244" font-family="Verdana" text-anchor="middle" font-size="15px" width="73px" fill="#323232" font-weight="700" align="middle" lineHeight="125%" anchor="middle" family="Verdana" size="15px" weight="700" font-style="" opacity="1" y="13.125" transform="rotate(0)"><tspan id="SvgjsTspan1245" dy="18.75" x="46.5"><tspan id="SvgjsTspan1246" style="">学科表</tspan></tspan><tspan id="SvgjsTspan1247" dy="18.75" x="46.5"><tspan id="SvgjsTspan1248" style="">subject</tspan></tspan></text></g></g><g id="SvgjsG1249" transform="translate(330.25,137)"><path id="SvgjsPath1250" d="M 0 0L 100 0L 100 70L 0 70Z" stroke="rgba(33,41,48,1)" stroke-width="2" fill-opacity="1" fill="#ffffcc"></path><g id="SvgjsG1251"><text id="SvgjsText1252" font-family="Verdana" text-anchor="middle" font-size="13px" width="80px" fill="#323232" font-weight="700" align="middle" lineHeight="125%" anchor="middle" family="Verdana" size="13px" weight="700" font-style="" opacity="1" y="7.875" transform="rotate(0)"><tspan id="SvgjsTspan1253" dy="16.25" x="50"><tspan id="SvgjsTspan1254" style="">学生表</tspan></tspan><tspan id="SvgjsTspan1255" dy="16.25" x="50"><tspan id="SvgjsTspan1256" style="">ustc_stud</tspan></tspan><tspan id="SvgjsTspan1257" dy="16.25" x="50"><tspan id="SvgjsTspan1258" style="">ent</tspan></tspan></text></g></g><g id="SvgjsG1259" transform="translate(443.625,137)"><path id="SvgjsPath1260" d="M 0 35L 70.5 0L 141 35L 70.5 70L 0 35Z" stroke="rgba(33,41,48,1)" stroke-width="2" fill-opacity="1" fill="#ffffcc"></path><g id="SvgjsG1261"><text id="SvgjsText1262" font-family="Verdana" text-anchor="middle" font-size="15px" width="121px" fill="#323232" font-weight="700" align="middle" lineHeight="125%" anchor="middle" family="Verdana" size="15px" weight="700" font-style="" opacity="1" y="13.125" transform="rotate(0)"><tspan id="SvgjsTspan1263" dy="18.75" x="70.5"><tspan id="SvgjsTspan1264" style="">成绩表</tspan></tspan><tspan id="SvgjsTspan1265" dy="18.75" x="70.5"><tspan id="SvgjsTspan1266" style="">ustc_score</tspan></tspan></text></g></g><g id="SvgjsG1267" transform="translate(615.375,137)"><path id="SvgjsPath1268" d="M 0 0L 100 0L 100 70L 0 70Z" stroke="rgba(33,41,48,1)" stroke-width="2" fill-opacity="1" fill="#ffffcc"></path><g id="SvgjsG1269"><text id="SvgjsText1270" font-family="Verdana" text-anchor="middle" font-size="13px" width="80px" fill="#323232" font-weight="700" align="middle" lineHeight="125%" anchor="middle" family="Verdana" size="13px" weight="700" font-style="" opacity="1" y="7.875" transform="rotate(0)"><tspan id="SvgjsTspan1271" dy="16.25" x="50"><tspan id="SvgjsTspan1272" style="">学生表</tspan></tspan><tspan id="SvgjsTspan1273" dy="16.25" x="50"><tspan id="SvgjsTspan1274" style="">zju_stude</tspan></tspan><tspan id="SvgjsTspan1275" dy="16.25" x="50"><tspan id="SvgjsTspan1276" style="">nt</tspan></tspan></text></g></g><g id="SvgjsG1277" transform="translate(729.375,137)"><path id="SvgjsPath1278" d="M 0 35L 70.5 0L 141 35L 70.5 70L 0 35Z" stroke="rgba(33,41,48,1)" stroke-width="2" fill-opacity="1" fill="#ffffcc"></path><g id="SvgjsG1279"><text id="SvgjsText1280" font-family="Verdana" text-anchor="middle" font-size="15px" width="121px" fill="#323232" font-weight="700" align="middle" lineHeight="125%" anchor="middle" family="Verdana" size="15px" weight="700" font-style="" opacity="1" y="13.125" transform="rotate(0)"><tspan id="SvgjsTspan1281" dy="18.75" x="70.5"><tspan id="SvgjsTspan1282" style="">成绩表</tspan></tspan><tspan id="SvgjsTspan1283" dy="18.75" x="70.5"><tspan id="SvgjsTspan1284" style="">zju_score</tspan></tspan></text></g></g><g id="SvgjsG1285"><path id="SvgjsPath1286" d="M158.29407496911975 341.1211501007618L373.8309250308803 210.87884989923822" stroke-dasharray="25,10" stroke="#323232" stroke-width="5" fill="none" marker-start="url(#SvgjsMarker1287)" marker-end="url(#SvgjsMarker1289)"></path><rect id="SvgjsRect1291" width="26" height="18" x="280.4729001038603" y="250.43673688305324" fill="#ffffff"></rect><text id="SvgjsText1292" font-family="&quot;Microsoft YaHei&quot;, 微软雅黑, Arial" text-anchor="middle" font-size="13px" width="26px" fill="#323232" font-weight="400" align="top" lineHeight="16px" anchor="middle" family="&quot;Microsoft YaHei&quot;, 微软雅黑, Arial" size="13px" weight="400" font-style="" opacity="1" y="247.81173688305324" transform="rotate(0)"><tspan id="SvgjsTspan1293" dy="16.25" x="293.4729001038603"><tspan id="SvgjsTspan1294" style="">同步</tspan></tspan></text></g><g id="SvgjsG1295"><path id="SvgjsPath1296" d="M313.3653772075338 340.8397485283108L507.8846227924662 211.1602514716892" stroke-dasharray="25,10" stroke="#323232" stroke-width="5" fill="none" marker-start="url(#SvgjsMarker1297)" marker-end="url(#SvgjsMarker1299)"></path><rect id="SvgjsRect1301" width="26" height="18" x="410.2026100824148" y="258.6149266117235" fill="#ffffff"></rect><text id="SvgjsText1302" font-family="&quot;Microsoft YaHei&quot;, 微软雅黑, Arial" text-anchor="middle" font-size="13px" width="26px" fill="#323232" font-weight="400" align="top" lineHeight="16px" anchor="middle" family="&quot;Microsoft YaHei&quot;, 微软雅黑, Arial" size="13px" weight="400" font-style="" opacity="1" y="255.9899266117235" transform="rotate(0)"><tspan id="SvgjsTspan1303" dy="16.25" x="423.2026100824148"><tspan id="SvgjsTspan1304" style="">同步</tspan></tspan></text></g><g id="SvgjsG1305"><path id="SvgjsPath1306" d="M729.2527478187629 339.9894265574989L668.6222521812371 213.76057344250108" stroke-dasharray="25,10" stroke="#323232" stroke-width="5" fill="none" marker-start="url(#SvgjsMarker1307)" marker-end="url(#SvgjsMarker1309)"></path><rect id="SvgjsRect1311" width="26" height="18" x="682.0171335039281" y="259.7130451720514" fill="#ffffff"></rect><text id="SvgjsText1312" font-family="&quot;Microsoft YaHei&quot;, 微软雅黑, Arial" text-anchor="middle" font-size="13px" width="26px" fill="#323232" font-weight="400" align="top" lineHeight="16px" anchor="middle" family="&quot;Microsoft YaHei&quot;, 微软雅黑, Arial" size="13px" weight="400" font-style="" opacity="1" y="257.0880451720514" transform="rotate(0)"><tspan id="SvgjsTspan1313" dy="16.25" x="695.0171335039281"><tspan id="SvgjsTspan1314" style="">同步</tspan></tspan></text></g><g id="SvgjsG1315"><path id="SvgjsPath1316" d="M883.7576667223594 340.40088391976934L803.8673332776406 213.34911608023066" stroke-dasharray="25,10" stroke="#323232" stroke-width="5" fill="none" marker-start="url(#SvgjsMarker1317)" marker-end="url(#SvgjsMarker1319)"></path><rect id="SvgjsRect1321" width="26" height="18" x="825.6467928207428" y="259.6598355243108" fill="#ffffff"></rect><text id="SvgjsText1322" font-family="&quot;Microsoft YaHei&quot;, 微软雅黑, Arial" text-anchor="middle" font-size="13px" width="26px" fill="#323232" font-weight="400" align="top" lineHeight="16px" anchor="middle" family="&quot;Microsoft YaHei&quot;, 微软雅黑, Arial" size="13px" weight="400" font-style="" opacity="1" y="257.0348355243108" transform="rotate(0)"><tspan id="SvgjsTspan1323" dy="16.25" x="838.6467928207428"><tspan id="SvgjsTspan1324" style="">同步</tspan></tspan></text></g><g id="SvgjsG1325"></g></svg>